<svg width="130" height="59" viewBox="0 0 130 59" fill="none" xmlns="http://www.w3.org/2000/svg">
<path d="M0.53782 11.3501L2.15128 5.94903C2.25293 5.5407 2.8085 4.89365 3.22692 4.86881H10.2186C10.5766 4.84007 10.9362 4.84007 11.2942 4.86881H15.5968C15.9119 4.90067 15.9932 5.12428 16.1346 5.40892L16.6724 6.48914C16.8959 6.82524 17.0766 7.18814 17.2102 7.56936L17.7481 9.72979C17.8083 10.0895 17.9229 10.2699 18.2859 10.2699C18.4188 10.2436 18.5409 10.1782 18.6367 10.0821C18.7324 9.98588 18.7975 9.86325 18.8237 9.72979V7.02925C18.8237 6.03112 18.274 5.17559 17.7481 4.3287C17.251 3.48904 16.5411 2.79674 15.6908 2.32234C14.8405 1.84795 13.8802 1.60841 12.9077 1.62815H11.832C11.5798 1.62815 11.4722 1.26736 11.2942 1.08804C10.3963 0.325766 9.24107 -0.0609458 8.0673 0.00782147H7.52948C5.78555 0.0176086 4.09009 0.585169 2.6891 1.62815C2.29236 1.94771 1.93166 2.30994 1.61346 2.70837V3.24848C0.785755 4.29197 0 5.15507 0 6.48914V11.3501C0 11.4679 0.420575 11.3501 0.53782 11.3501C0.504475 11.4743 0.665821 11.3501 0.53782 11.3501Z" fill="#313131"/>
<path d="M9.68144 50.2377V38.8954C9.65856 38.6825 9.69709 38.4675 9.79244 38.276C9.88779 38.0845 10.0359 37.9245 10.2193 37.8152C10.7192 37.4608 11.0932 36.9552 11.2867 36.3722C11.4802 35.7892 11.4831 35.1593 11.2949 34.5745C11.1996 34.085 10.9269 33.6483 10.5295 33.349C10.1321 33.0496 9.63831 32.909 9.14362 32.9542C7.98408 32.9445 6.80357 33.4641 6.45452 34.5745C6.26722 35.1594 6.27052 35.7889 6.46397 36.3718C6.65741 36.9546 7.03091 37.4602 7.53016 37.8152C7.71605 37.9218 7.86634 38.0812 7.96206 38.2735C8.05778 38.4657 8.09464 38.6822 8.06798 38.8954C8.04862 42.5444 8.06798 46.0486 8.06798 49.6976V50.2377L2.68978 39.9756C2.08151 38.6945 1.65233 37.4868 1.07632 36.1949C0.951121 35.8458 0.951121 35.4638 1.07632 35.1147C2.98741 32.4181 4.10554 29.2366 4.30324 25.9328C4.32314 25.8437 4.26237 26.0144 4.30324 25.9328H13.4462C13.7436 27.3371 13.6419 28.3703 13.984 29.7136C14.5584 31.6582 15.4686 33.4864 16.6731 35.1147C16.7691 35.2783 16.8198 35.4648 16.8198 35.6548C16.8198 35.8447 16.7691 36.0312 16.6731 36.1949" fill="#313131"/>
<path d="M14.522 24.3125V25.3927C14.3558 25.8 13.8826 26.5134 13.4464 26.4729H4.84126C4.57312 26.4258 4.32597 26.2968 4.13348 26.1035C3.941 25.9102 3.81254 25.662 3.76562 25.3927V24.3125H14.522Z" fill="#313131"/>
<path d="M9.14258 26.4747L11.2939 25.3945V27.555L9.14258 26.4747Z" fill="#FFFCF8"/>
<path d="M8.60636 26.4747L6.45508 27.555V25.3945L8.60636 26.4747Z" fill="#FFFCF8"/>
<path d="M8.60563 51.3163C8.23345 51.2374 7.19008 52.4089 7.52999 53.4767C8.02317 55.0695 11.4071 55.5729 12.3704 55.6372C15.7167 55.8635 16.8235 54.4203 19.8998 55.097C21.8812 55.5243 22.4061 56.2351 22.5889 56.7174C22.8041 57.3002 22.3614 58.1924 22.5889 58.3377C22.8164 58.483 23.4946 57.8192 23.6646 57.2575C23.7369 56.964 23.7248 56.6559 23.6296 56.369C23.5344 56.0822 23.36 55.8284 23.1268 55.6372C22.5352 55.0565 21.7688 54.7427 20.4377 54.5569C18.4219 54.262 17.1855 54.5569 15.0595 54.5569C13.9608 54.5662 12.8689 54.3835 11.8325 54.0168C10.0233 53.5534 9.27091 53.1375 9.14345 52.9366C8.65242 52.1378 8.86539 51.3714 8.60563 51.3163Z" fill="#313131"/>
<path d="M54.7917 13.074C54.2051 12.986 53.5891 12.7733 52.9437 12.436V11.6H58.4877V12.436C58.2384 12.5973 57.9744 12.7293 57.6957 12.832C57.4171 12.9347 57.1457 13.0153 56.8817 13.074L52.9877 27L50.6997 27.264L47.2897 16.616L43.9677 27L41.6577 27.264L37.3677 13.074C37.0597 13.0153 36.7737 12.9347 36.5097 12.832C36.2457 12.7147 35.9964 12.5827 35.7617 12.436V11.6H42.8897V12.436C42.6404 12.568 42.3544 12.6927 42.0317 12.81C41.7237 12.9127 41.4011 13.0007 41.0637 13.074L43.1097 20.84L43.5717 23.7H43.6157L44.3857 20.73L47.3117 11.6H48.6097L51.7337 20.62L52.4817 23.48H52.5257L53.0317 20.576L54.7917 13.074ZM64.0362 25.526C64.3735 25.5993 64.6742 25.6947 64.9382 25.812C65.2022 25.9293 65.4589 26.0467 65.7082 26.164V27H58.9322V26.164C59.2549 25.988 59.5629 25.856 59.8562 25.768C60.1495 25.6653 60.4429 25.5847 60.7362 25.526V13.074C60.0029 12.9127 59.4015 12.7 58.9322 12.436V11.6H61.2642C61.5575 11.6 61.8875 11.5927 62.2542 11.578C62.6355 11.5633 63.0315 11.5487 63.4422 11.534C63.8529 11.5047 64.2709 11.4827 64.6962 11.468C65.1215 11.4387 65.5322 11.424 65.9282 11.424C66.7349 11.424 67.4755 11.5193 68.1502 11.71C68.8395 11.886 69.4262 12.1573 69.9102 12.524C70.4089 12.8907 70.7902 13.3527 71.0542 13.91C71.3329 14.4527 71.4722 15.0907 71.4722 15.824C71.4722 16.88 71.2155 17.7453 70.7022 18.42C70.1889 19.0947 69.4849 19.6007 68.5902 19.938C69.1769 20.862 69.8002 21.808 70.4602 22.776C71.1202 23.7293 71.8169 24.6533 72.5502 25.548L73.6062 26.252V27H69.9322L68.9862 26.274C68.3115 25.4673 67.7102 24.536 67.1822 23.48C66.6689 22.4093 66.2142 21.3607 65.8182 20.334H64.0362V25.526ZM65.1362 12.854C64.6815 12.854 64.3149 12.898 64.0362 12.986V19.124H65.3342C66.0822 19.124 66.7202 18.86 67.2482 18.332C67.7762 17.7893 68.0402 16.99 68.0402 15.934C68.0402 15.3913 67.9669 14.9293 67.8202 14.548C67.6735 14.152 67.4682 13.8293 67.2042 13.58C66.9402 13.3307 66.6322 13.1473 66.2802 13.03C65.9282 12.9127 65.5469 12.854 65.1362 12.854ZM81.356 27H74.492V26.164C75.0787 25.8413 75.6727 25.6287 76.274 25.526V13.074C75.9807 13.03 75.6727 12.9493 75.35 12.832C75.0274 12.7147 74.7414 12.5827 74.492 12.436V11.6H81.356V12.436C81.092 12.5973 80.7987 12.7367 80.476 12.854C80.168 12.9567 79.8674 13.03 79.574 13.074V25.526C79.8674 25.5847 80.168 25.6653 80.476 25.768C80.7987 25.8707 81.092 26.0027 81.356 26.164V27ZM93.1276 27H85.5596V26.164C85.8529 26.0467 86.1829 25.9293 86.5496 25.812C86.9309 25.68 87.3122 25.5847 87.6936 25.526V13.03H85.1416L83.7336 16.792H82.8316C82.7729 16.4987 82.7142 16.1247 82.6556 15.67C82.5969 15.2153 82.5456 14.746 82.5016 14.262C82.4576 13.778 82.4209 13.3013 82.3916 12.832C82.3622 12.348 82.3476 11.9373 82.3476 11.6H96.3616C96.3616 11.952 96.3469 12.3627 96.3176 12.832C96.2882 13.3013 96.2516 13.778 96.2076 14.262C96.1636 14.746 96.1122 15.2153 96.0536 15.67C95.9949 16.11 95.9362 16.484 95.8776 16.792H94.9536L93.5456 13.03H90.9936V25.526C91.3749 25.5993 91.7489 25.6873 92.1156 25.79C92.4969 25.8927 92.8342 26.0173 93.1276 26.164V27ZM108.703 11.6C108.674 12.26 108.623 12.942 108.549 13.646C108.476 14.35 108.381 15.01 108.263 15.626H107.361L106.349 13.03H102.235V18.42H104.919L105.887 16.726H106.591C106.665 17.4447 106.701 18.244 106.701 19.124C106.701 20.004 106.665 20.8253 106.591 21.588H105.887L104.919 19.85H102.235V25.57H106.525L107.691 22.776H108.593C108.652 23.0547 108.711 23.37 108.769 23.722C108.828 24.074 108.872 24.4407 108.901 24.822C108.945 25.1887 108.975 25.5627 108.989 25.944C109.019 26.3253 109.033 26.6773 109.033 27H97.1314V26.164C97.3807 26.032 97.6594 25.9073 97.9674 25.79C98.2754 25.6727 98.5981 25.5847 98.9354 25.526V13.074C98.6421 13.0153 98.3267 12.9347 97.9894 12.832C97.6667 12.7147 97.3807 12.5827 97.1314 12.436V11.6H108.703ZM115.513 25.526C115.85 25.5993 116.151 25.6947 116.415 25.812C116.679 25.9293 116.935 26.0467 117.185 26.164V27H110.409V26.164C110.731 25.988 111.039 25.856 111.333 25.768C111.626 25.6653 111.919 25.5847 112.213 25.526V13.074C111.479 12.9127 110.878 12.7 110.409 12.436V11.6H112.741C113.034 11.6 113.364 11.5927 113.731 11.578C114.112 11.5633 114.508 11.5487 114.919 11.534C115.329 11.5047 115.747 11.4827 116.173 11.468C116.598 11.4387 117.009 11.424 117.405 11.424C118.211 11.424 118.952 11.5193 119.627 11.71C120.316 11.886 120.903 12.1573 121.387 12.524C121.885 12.8907 122.267 13.3527 122.531 13.91C122.809 14.4527 122.949 15.0907 122.949 15.824C122.949 16.88 122.692 17.7453 122.179 18.42C121.665 19.0947 120.961 19.6007 120.067 19.938C120.653 20.862 121.277 21.808 121.937 22.776C122.597 23.7293 123.293 24.6533 124.027 25.548L125.083 26.252V27H121.409L120.463 26.274C119.788 25.4673 119.187 24.536 118.659 23.48C118.145 22.4093 117.691 21.3607 117.295 20.334H115.513V25.526ZM116.613 12.854C116.158 12.854 115.791 12.898 115.513 12.986V19.124H116.811C117.559 19.124 118.197 18.86 118.725 18.332C119.253 17.7893 119.517 16.99 119.517 15.934C119.517 15.3913 119.443 14.9293 119.297 14.548C119.15 14.152 118.945 13.8293 118.681 13.58C118.417 13.3307 118.109 13.1473 117.757 13.03C117.405 12.9127 117.023 12.854 116.613 12.854ZM61.6023 38.074C61.0156 37.986 60.3996 37.7733 59.7543 37.436V36.6H65.2983V37.436C65.0489 37.5973 64.7849 37.7293 64.5063 37.832C64.2276 37.9347 63.9563 38.0153 63.6923 38.074L59.7983 52L57.5103 52.264L54.1003 41.616L50.7783 52L48.4683 52.264L44.1783 38.074C43.8703 38.0153 43.5843 37.9347 43.3203 37.832C43.0563 37.7147 42.8069 37.5827 42.5723 37.436V36.6H49.7003V37.436C49.4509 37.568 49.1649 37.6927 48.8423 37.81C48.5343 37.9127 48.2116 38.0007 47.8743 38.074L49.9203 45.84L50.3823 48.7H50.4263L51.1963 45.73L54.1223 36.6H55.4203L58.5443 45.62L59.2923 48.48H59.3363L59.8423 45.576L61.6023 38.074ZM65.4732 44.3C65.4732 43.156 65.6346 42.1 65.9572 41.132C66.2799 40.1493 66.7566 39.306 67.3872 38.602C68.0179 37.8833 68.7952 37.326 69.7192 36.93C70.6432 36.534 71.7066 36.336 72.9092 36.336C74.1119 36.336 75.1752 36.534 76.0992 36.93C77.0232 37.326 77.7932 37.8833 78.4092 38.602C79.0399 39.306 79.5166 40.1493 79.8392 41.132C80.1619 42.1 80.3232 43.156 80.3232 44.3C80.3232 45.444 80.1619 46.5073 79.8392 47.49C79.5166 48.458 79.0399 49.3013 78.4092 50.02C77.7932 50.724 77.0232 51.274 76.0992 51.67C75.1752 52.066 74.1119 52.264 72.9092 52.264C71.7066 52.264 70.6432 52.066 69.7192 51.67C68.7952 51.274 68.0179 50.724 67.3872 50.02C66.7566 49.3013 66.2799 48.458 65.9572 47.49C65.6346 46.5073 65.4732 45.444 65.4732 44.3ZM69.2132 44.3C69.2132 45.2387 69.2866 46.1113 69.4332 46.918C69.5799 47.71 69.8072 48.3993 70.1152 48.986C70.4379 49.558 70.8412 50.0127 71.3252 50.35C71.8239 50.6727 72.4179 50.834 73.1072 50.834C73.7379 50.834 74.2732 50.6727 74.7132 50.35C75.1532 50.0127 75.5126 49.558 75.7912 48.986C76.0699 48.3993 76.2679 47.71 76.3852 46.918C76.5172 46.1113 76.5832 45.2387 76.5832 44.3C76.5832 43.3613 76.5099 42.496 76.3632 41.704C76.2312 40.8973 76.0112 40.208 75.7032 39.636C75.4099 39.0493 75.0139 38.5947 74.5152 38.272C74.0312 37.9347 73.4372 37.766 72.7332 37.766C72.0586 37.766 71.4939 37.9347 71.0392 38.272C70.5846 38.5947 70.2179 39.0493 69.9392 39.636C69.6752 40.208 69.4846 40.8973 69.3672 41.704C69.2646 42.496 69.2132 43.3613 69.2132 44.3ZM86.7452 50.526C87.0825 50.5993 87.3832 50.6947 87.6472 50.812C87.9112 50.9293 88.1678 51.0467 88.4172 51.164V52H81.6412V51.164C81.9638 50.988 82.2718 50.856 82.5652 50.768C82.8585 50.6653 83.1518 50.5847 83.4452 50.526V38.074C82.7118 37.9127 82.1105 37.7 81.6412 37.436V36.6H83.9732C84.2665 36.6 84.5965 36.5927 84.9632 36.578C85.3445 36.5633 85.7405 36.5487 86.1512 36.534C86.5618 36.5047 86.9798 36.4827 87.4052 36.468C87.8305 36.4387 88.2412 36.424 88.6372 36.424C89.4438 36.424 90.1845 36.5193 90.8592 36.71C91.5485 36.886 92.1352 37.1573 92.6192 37.524C93.1178 37.8907 93.4992 38.3527 93.7632 38.91C94.0418 39.4527 94.1812 40.0907 94.1812 40.824C94.1812 41.88 93.9245 42.7453 93.4112 43.42C92.8978 44.0947 92.1938 44.6007 91.2992 44.938C91.8858 45.862 92.5092 46.808 93.1692 47.776C93.8292 48.7293 94.5258 49.6533 95.2592 50.548L96.3152 51.252V52H92.6412L91.6952 51.274C91.0205 50.4673 90.4192 49.536 89.8912 48.48C89.3778 47.4093 88.9232 46.3607 88.5272 45.334H86.7452V50.526ZM87.8452 37.854C87.3905 37.854 87.0238 37.898 86.7452 37.986V44.124H88.0432C88.7912 44.124 89.4292 43.86 89.9572 43.332C90.4852 42.7893 90.7492 41.99 90.7492 40.934C90.7492 40.3913 90.6758 39.9293 90.5292 39.548C90.3825 39.152 90.1772 38.8293 89.9132 38.58C89.6492 38.3307 89.3412 38.1473 88.9892 38.03C88.6372 37.9127 88.2558 37.854 87.8452 37.854ZM105.319 36.6H111.215V37.436C110.966 37.5973 110.68 37.7367 110.357 37.854C110.034 37.9567 109.741 38.03 109.477 38.074L105.297 43.376C105.634 43.8453 106.03 44.3807 106.485 44.982C106.94 45.5687 107.424 46.1847 107.937 46.83C108.45 47.4607 108.978 48.106 109.521 48.766C110.064 49.4113 110.592 50.0273 111.105 50.614L112.161 51.252V52H108.333L107.453 51.384C107.101 50.944 106.727 50.46 106.331 49.932C105.95 49.3893 105.568 48.832 105.187 48.26C104.806 47.6733 104.432 47.0867 104.065 46.5C103.698 45.9133 103.354 45.3413 103.031 44.784H102.085V50.526C102.408 50.5847 102.701 50.6727 102.965 50.79C103.229 50.9073 103.456 51.032 103.647 51.164V52H96.981V51.164C97.2743 51.0173 97.575 50.8927 97.883 50.79C98.191 50.6727 98.4917 50.5847 98.785 50.526V38.074C98.4477 38.03 98.1177 37.9493 97.795 37.832C97.487 37.7147 97.2157 37.5827 96.981 37.436V36.6H103.647V37.436C103.456 37.5533 103.222 37.6707 102.943 37.788C102.679 37.9053 102.393 38.0007 102.085 38.074V43.662L103.383 43.354L106.925 38.074C106.632 38.0153 106.338 37.9273 106.045 37.81C105.766 37.678 105.524 37.5533 105.319 37.436V36.6ZM115.614 50.174C115.775 50.3353 116.003 50.4893 116.296 50.636C116.589 50.768 116.978 50.834 117.462 50.834C118.269 50.834 118.936 50.6287 119.464 50.218C120.007 49.7927 120.278 49.206 120.278 48.458C120.278 47.9153 120.102 47.4607 119.75 47.094C119.413 46.7273 118.98 46.39 118.452 46.082C117.924 45.774 117.359 45.4733 116.758 45.18C116.157 44.872 115.592 44.5127 115.064 44.102C114.536 43.6913 114.096 43.2073 113.744 42.65C113.407 42.078 113.238 41.374 113.238 40.538C113.238 39.8193 113.37 39.196 113.634 38.668C113.898 38.14 114.257 37.7073 114.712 37.37C115.181 37.018 115.731 36.7613 116.362 36.6C116.993 36.424 117.675 36.336 118.408 36.336C119.303 36.336 120.131 36.402 120.894 36.534C121.671 36.6513 122.368 36.842 122.984 37.106C122.969 37.3993 122.94 37.7367 122.896 38.118C122.867 38.4993 122.823 38.8807 122.764 39.262C122.705 39.6287 122.639 39.9807 122.566 40.318C122.507 40.6407 122.449 40.912 122.39 41.132H121.488L120.476 38.118C120.3 38.03 120.036 37.9493 119.684 37.876C119.347 37.8027 118.995 37.766 118.628 37.766C118.012 37.766 117.491 37.9273 117.066 38.25C116.641 38.5727 116.428 39.042 116.428 39.658C116.428 40.2153 116.604 40.692 116.956 41.088C117.308 41.4693 117.748 41.8213 118.276 42.144C118.804 42.4667 119.376 42.7893 119.992 43.112C120.623 43.42 121.202 43.7793 121.73 44.19C122.258 44.6007 122.698 45.0847 123.05 45.642C123.402 46.1847 123.578 46.8593 123.578 47.666C123.578 49.1327 123.079 50.2693 122.082 51.076C121.099 51.868 119.647 52.264 117.726 52.264C117.257 52.264 116.78 52.2347 116.296 52.176C115.827 52.1173 115.379 52.0367 114.954 51.934C114.529 51.8313 114.147 51.7213 113.81 51.604C113.487 51.4867 113.245 51.362 113.084 51.23C113.099 50.8927 113.135 50.5333 113.194 50.152C113.253 49.756 113.311 49.3673 113.37 48.986C113.443 48.59 113.517 48.216 113.59 47.864C113.663 47.512 113.737 47.204 113.81 46.94H114.712L115.614 50.174Z" fill="#313131"/>
</svg>
